<mxfile host="app.diagrams.net" modified="2023-05-07T10:00:38.468Z" agent="Mozilla/5.0 (Windows NT 10.0; Win64; x64) AppleWebKit/537.36 (KHTML, like Gecko) Chrome/112.0.0.0 Safari/537.36" etag="YZNSj9rzRVTRCaPKeV_y" version="21.2.9" type="github">
  <diagram name="Page-1" id="Kv_a7wYcTD_mvLx6k0sK">
    <mxGraphModel dx="1050" dy="483" grid="1" gridSize="10" guides="1" tooltips="1" connect="1" arrows="1" fold="1" page="1" pageScale="1" pageWidth="827" pageHeight="1169" math="0" shadow="0">
      <root>
        <mxCell id="0" />
        <mxCell id="1" parent="0" />
        <mxCell id="caiXQSe67OJi1p_gfBw7-1" value="«Microservice»&lt;br&gt;&lt;b&gt;Worker&lt;/b&gt;" style="html=1;dropTarget=0;whiteSpace=wrap;" vertex="1" parent="1">
          <mxGeometry x="370" y="320" width="180" height="90" as="geometry" />
        </mxCell>
        <mxCell id="caiXQSe67OJi1p_gfBw7-2" value="" style="shape=module;jettyWidth=8;jettyHeight=4;" vertex="1" parent="caiXQSe67OJi1p_gfBw7-1">
          <mxGeometry x="1" width="20" height="20" relative="1" as="geometry">
            <mxPoint x="-27" y="7" as="offset" />
          </mxGeometry>
        </mxCell>
        <mxCell id="caiXQSe67OJi1p_gfBw7-3" value="«Microservice»&lt;br&gt;&lt;b&gt;Api Gateway&lt;/b&gt;" style="html=1;dropTarget=0;whiteSpace=wrap;" vertex="1" parent="1">
          <mxGeometry x="360" y="100" width="180" height="90" as="geometry" />
        </mxCell>
        <mxCell id="caiXQSe67OJi1p_gfBw7-4" value="" style="shape=module;jettyWidth=8;jettyHeight=4;" vertex="1" parent="caiXQSe67OJi1p_gfBw7-3">
          <mxGeometry x="1" width="20" height="20" relative="1" as="geometry">
            <mxPoint x="-27" y="7" as="offset" />
          </mxGeometry>
        </mxCell>
      </root>
    </mxGraphModel>
  </diagram>
</mxfile>
